<svg xmlns="http://www.w3.org/2000/svg" width="522" height="234" viewBox="0 0 522 234"><rect width="100%" height="100%" fill="#DDDDDD"/><path fill="#999999" d="M108.545 113.95h3.92q1.45 0 2.52-.36t1.78-1.03q.72-.68 1.07-1.64.35-.97.35-2.16 0-1.13-.35-2.04-.35-.92-1.06-1.57-.7-.64-1.77-.98-1.07-.34-2.54-.34h-3.92v10.12Zm-5.24-14.18h9.16q2.83 0 4.9.67 2.07.66 3.41 1.85 1.35 1.19 2 2.85.65 1.65.65 3.62 0 2.05-.68 3.76-.68 1.7-2.05 2.93-1.36 1.23-3.42 1.91-2.06.68-4.81.68h-3.92v9.93h-5.24v-28.2Zm23.44-.78h4.81v28.98h-4.81V98.99Zm20.2 23.81v-3.37q-2.09.1-3.51.36t-2.28.67q-.86.41-1.23.96-.37.54-.37 1.19 0 1.27.75 1.81.75.55 1.96.55 1.48 0 2.56-.54 1.09-.54 2.12-1.63Zm-10.18-10.51-.86-1.54q3.45-3.16 8.31-3.16 1.75 0 3.14.58 1.38.57 2.34 1.6.95 1.02 1.45 2.44.5 1.43.5 3.12v12.64h-2.18q-.69 0-1.06-.2-.37-.21-.58-.83l-.43-1.45q-.76.69-1.48 1.2-.73.52-1.51.87t-1.66.54q-.89.18-1.96.18-1.27 0-2.34-.34-1.07-.34-1.85-1.02-.78-.69-1.21-1.7-.43-1.01-.43-2.36 0-.76.25-1.51t.83-1.43q.57-.69 1.49-1.29.92-.61 2.25-1.05 1.34-.45 3.11-.73 1.78-.29 4.06-.35v-1.17q0-2-.86-2.97-.86-.96-2.47-.96-1.17 0-1.94.27-.78.27-1.36.61-.59.34-1.06.62-.48.27-1.07.27-.5 0-.85-.26-.35-.27-.57-.62Zm35-1.85-1.26 1.75q-.22.28-.42.43-.21.16-.6.16-.37 0-.72-.22-.35-.23-.84-.51t-1.16-.51q-.67-.22-1.67-.22-1.26 0-2.22.46-.95.45-1.59 1.31-.63.86-.94 2.08-.32 1.22-.32 2.76 0 1.6.35 2.84.34 1.25.98 2.1.64.85 1.56 1.29.92.44 2.07.44t1.86-.29q.71-.28 1.2-.62.49-.34.85-.62.36-.29.81-.29.58 0 .87.45l1.39 1.76q-.8.93-1.74 1.57-.93.63-1.94 1.01-1 .38-2.06.54-1.07.15-2.12.15-1.85 0-3.49-.69-1.64-.69-2.87-2.02-1.23-1.32-1.94-3.24-.71-1.93-.71-4.38 0-2.21.63-4.09.64-1.88 1.87-3.25 1.23-1.38 3.04-2.16 1.81-.78 4.17-.78 2.24 0 3.93.72t3.03 2.07Zm7 5.23h9.09q0-.94-.26-1.77-.27-.83-.79-1.45-.53-.63-1.34-.99t-1.88-.36q-2.09 0-3.29 1.19-1.19 1.19-1.53 3.38Zm12.29 2.9h-12.38q.11 1.54.54 2.66.43 1.12 1.13 1.86.71.73 1.67 1.09.97.36 2.14.36 1.17 0 2.01-.28.85-.27 1.49-.6.63-.33 1.11-.6.48-.28.92-.28.61 0 .9.45l1.39 1.76q-.8.93-1.8 1.57-.99.63-2.08 1.01-1.08.38-2.2.54-1.12.15-2.17.15-2.09 0-3.88-.69-1.8-.69-3.12-2.05-1.33-1.35-2.09-3.35-.76-2-.76-4.63 0-2.05.66-3.85.67-1.81 1.9-3.14 1.24-1.34 3.03-2.12 1.78-.78 4.02-.78 1.89 0 3.49.61 1.6.6 2.75 1.76 1.15 1.16 1.81 2.85.65 1.68.65 3.85 0 1.09-.23 1.47-.24.38-.9.38Zm9.55-19.58v11.12q1.17-1.09 2.58-1.78 1.4-.68 3.29-.68 1.64 0 2.91.56 1.27.55 2.11 1.56.85 1 1.29 2.4.44 1.39.44 3.07v12.73h-4.82v-12.73q0-1.84-.83-2.84-.84-1-2.56-1-1.25 0-2.34.56-1.09.57-2.07 1.54v14.47h-4.81V98.99h4.81Zm26.04 8.66q2.22 0 4.04.72 1.83.72 3.12 2.05 1.3 1.33 2 3.24.7 1.91.7 4.27 0 2.38-.7 4.29-.7 1.91-2 3.25-1.29 1.35-3.12 2.07-1.82.72-4.04.72-2.25 0-4.08-.72t-3.13-2.07q-1.3-1.34-2.01-3.25-.71-1.91-.71-4.29 0-2.36.71-4.27.71-1.91 2.01-3.24 1.3-1.33 3.13-2.05 1.83-.72 4.08-.72Zm0 16.91q2.49 0 3.69-1.68 1.2-1.68 1.2-4.91 0-3.24-1.2-4.94-1.2-1.69-3.69-1.69-2.54 0-3.76 1.7-1.22 1.71-1.22 4.93 0 3.21 1.22 4.9 1.22 1.69 3.76 1.69Zm13.61-25.57h4.81v28.98h-4.81V98.99Zm22.19 23.05v-8.97q-.82-.99-1.79-1.4-.96-.41-2.07-.41-1.09 0-1.97.41-.88.41-1.5 1.24-.63.83-.96 2.1-.33 1.28-.33 3.01 0 1.76.28 2.98t.81 1.99q.53.77 1.29 1.11.76.34 1.69.34 1.51 0 2.56-.62 1.05-.63 1.99-1.78Zm0-23.05h4.81v28.98h-2.94q-.96 0-1.21-.88l-.41-1.93q-1.21 1.39-2.78 2.24-1.57.86-3.65.86-1.64 0-3.01-.68-1.36-.68-2.35-1.98-.98-1.3-1.52-3.21-.53-1.91-.53-4.37 0-2.22.6-4.13.61-1.91 1.74-3.31 1.13-1.41 2.71-2.2 1.58-.79 3.55-.79 1.67 0 2.86.53t2.13 1.42V98.99Zm13.38 16.68h9.08q0-.94-.26-1.77-.26-.83-.79-1.45-.53-.63-1.34-.99t-1.88-.36q-2.08 0-3.28 1.19-1.2 1.19-1.53 3.38Zm12.28 2.9h-12.38q.11 1.54.54 2.66.43 1.12 1.13 1.86.71.73 1.67 1.09.97.36 2.14.36 1.17 0 2.02-.28.84-.27 1.48-.6.63-.33 1.11-.6.48-.28.93-.28.6 0 .89.45l1.39 1.76q-.8.93-1.8 1.57-.99.63-2.07 1.01-1.09.38-2.21.54-1.12.15-2.17.15-2.09 0-3.88-.69-1.8-.69-3.12-2.05-1.33-1.35-2.09-3.35-.76-2-.76-4.63 0-2.05.66-3.85.67-1.81 1.91-3.14 1.23-1.34 3.02-2.12 1.78-.78 4.02-.78 1.9 0 3.49.61 1.6.6 2.75 1.76 1.15 1.16 1.81 2.85.65 1.68.65 3.85 0 1.09-.23 1.47-.24.38-.9.38Zm8.99-9.4.29 2.26q.94-1.79 2.23-2.81 1.28-1.03 3.04-1.03 1.38 0 2.22.61l-.31 3.6q-.1.36-.28.5-.19.15-.5.15-.29 0-.87-.1-.57-.1-1.12-.1-.8 0-1.42.24-.63.23-1.13.67-.49.44-.87 1.06-.38.63-.71 1.43v12.32h-4.82v-20.01h2.83q.74 0 1.03.27.29.26.39.94Zm25.8-9.4v28.2h-5.27v-28.2h5.27Zm10.35 28.2h-4.81v-20.01h2.94q.94 0 1.23.88l.31 1.48q.53-.58 1.1-1.07.58-.49 1.23-.84t1.41-.55q.75-.21 1.64-.21 1.89 0 3.11 1.02 1.22 1.03 1.83 2.73.47-1 1.17-1.71t1.54-1.16q.84-.45 1.78-.66.95-.22 1.9-.22 1.66 0 2.95.51 1.28.51 2.16 1.48.88.97 1.34 2.38.46 1.4.46 3.22v12.73h-4.82v-12.73q0-1.91-.84-2.88-.84-.96-2.46-.96-.74 0-1.37.25-.63.25-1.11.73-.48.48-.75 1.2-.28.72-.28 1.66v12.73h-4.83v-12.73q0-2.01-.81-2.93-.81-.91-2.37-.91-1.05 0-1.96.51-.91.52-1.69 1.42v14.64Zm38.42-5.17v-3.37q-2.09.1-3.51.36-1.43.26-2.28.67-.86.41-1.23.96-.37.54-.37 1.19 0 1.27.75 1.81.75.55 1.96.55 1.48 0 2.56-.54t2.12-1.63Zm-10.18-10.51-.86-1.54q3.45-3.16 8.31-3.16 1.75 0 3.14.58 1.38.57 2.34 1.6.95 1.02 1.45 2.44.5 1.43.5 3.12v12.64h-2.19q-.68 0-1.05-.2-.37-.21-.58-.83l-.43-1.45q-.76.69-1.49 1.2-.72.52-1.5.87t-1.66.54q-.89.18-1.96.18-1.27 0-2.34-.34-1.08-.34-1.86-1.02-.78-.69-1.21-1.7-.42-1.01-.42-2.36 0-.76.25-1.51t.83-1.43q.57-.69 1.49-1.29.92-.61 2.25-1.05 1.34-.45 3.11-.73 1.78-.29 4.06-.35v-1.17q0-2-.86-2.97-.86-.96-2.48-.96-1.17 0-1.94.27t-1.35.61q-.59.34-1.06.62-.48.27-1.07.27-.5 0-.86-.26-.35-.27-.56-.62Zm26.71 5.19q.9 0 1.56-.24.67-.25 1.11-.68.43-.43.66-1.03.22-.61.22-1.33 0-1.48-.88-2.35-.89-.86-2.67-.86-1.77 0-2.66.86-.89.87-.89 2.35 0 .71.23 1.31.22.6.66 1.04.44.44 1.11.69.68.24 1.55.24Zm5.44 11.39q0-.59-.35-.96t-.95-.57q-.61-.21-1.42-.31-.81-.09-1.71-.14-.91-.05-1.87-.09-.97-.04-1.89-.16-.8.45-1.29 1.06-.5.6-.5 1.4 0 .53.26.99.27.45.84.79.58.33 1.49.51.92.19 2.25.19 1.34 0 2.32-.21.97-.2 1.61-.56.63-.36.92-.86.29-.5.29-1.08Zm-.95-20.22h5.75v1.79q0 .86-1.03 1.05l-1.8.33q.41 1.04.41 2.27 0 1.48-.59 2.68-.6 1.2-1.65 2.04-1.05.83-2.49 1.29-1.43.46-3.09.46-.58 0-1.13-.06-.54-.06-1.07-.15-.94.56-.94 1.26 0 .61.56.89t1.47.4q.92.12 2.09.15t2.4.12q1.23.1 2.4.34 1.17.25 2.08.77.92.53 1.47 1.44.56.9.56 2.33 0 1.32-.65 2.57-.66 1.25-1.89 2.23-1.24.97-3.05 1.56-1.8.6-4.1.6-2.26 0-3.94-.44-1.68-.44-2.79-1.17t-1.66-1.69q-.54-.95-.54-1.99 0-1.4.85-2.34.84-.95 2.33-1.52-.8-.41-1.27-1.09-.47-.68-.47-1.79 0-.45.17-.93.16-.48.48-.94.33-.47.81-.89.49-.42 1.15-.75-1.52-.82-2.38-2.19-.87-1.36-.87-3.19 0-1.49.59-2.69.6-1.19 1.66-2.04 1.06-.85 2.52-1.3 1.45-.45 3.16-.45 1.29 0 2.42.27 1.13.26 2.07.77Zm12.6 7.02h9.08q0-.94-.26-1.77-.26-.83-.79-1.45-.53-.63-1.34-.99-.8-.36-1.88-.36-2.08 0-3.28 1.19-1.2 1.19-1.53 3.38Zm12.28 2.9h-12.38q.12 1.54.54 2.66.43 1.12 1.14 1.86.7.73 1.66 1.09.97.36 2.14.36 1.17 0 2.02-.28.84-.27 1.48-.6.63-.33 1.11-.6.48-.28.93-.28.6 0 .89.45l1.39 1.76q-.8.93-1.8 1.57-.99.63-2.07 1.01-1.09.38-2.21.54-1.12.15-2.17.15-2.09 0-3.88-.69-1.8-.69-3.12-2.05-1.33-1.35-2.09-3.35-.76-2-.76-4.63 0-2.05.66-3.85.67-1.81 1.91-3.14 1.23-1.34 3.02-2.12 1.78-.78 4.02-.78 1.9 0 3.5.61 1.59.6 2.74 1.76 1.16 1.16 1.81 2.85.65 1.68.65 3.85 0 1.09-.23 1.47-.24.38-.9.38Z"/></svg>